<?xml version="1.0" standalone="no"?>
<!DOCTYPE svg PUBLIC "-//W3C//DTD SVG 20010904//EN"
 "http://www.w3.org/TR/2001/REC-SVG-20010904/DTD/svg10.dtd">
<svg version="1.0" xmlns="http://www.w3.org/2000/svg"
 width="3600.000000pt" height="3600.000000pt" viewBox="0 0 3600.000000 3600.000000"
 preserveAspectRatio="xMidYMid meet">
<metadata>
Created by potrace 1.16, written by Peter Selinger 2001-2019
</metadata>
<g transform="translate(0.000000,3600.000000) scale(0.100000,-0.100000)"
fill="#000000" stroke="none">
<path d="M16162 32809 c-111 -14 -224 -49 -330 -100 -239 -116 -361 -323 -323
-550 16 -98 66 -214 115 -268 134 -144 357 -231 601 -231 177 0 293 -39 352
-118 38 -50 41 -78 14 -130 -26 -50 -66 -86 -126 -114 -44 -20 -65 -23 -170
-22 -136 1 -260 28 -414 90 l-86 34 -18 -22 c-39 -50 -177 -261 -177 -273 0
-15 126 -87 223 -125 347 -138 802 -84 1022 121 73 69 116 131 147 215 18 49
21 81 22 184 0 118 -2 130 -34 215 -43 115 -100 178 -212 235 -93 48 -162 64
-392 90 -162 19 -234 33 -299 59 -46 18 -114 69 -143 106 -24 31 -25 37 -14
70 16 47 71 102 129 127 98 43 273 32 460 -27 42 -14 84 -25 93 -25 34 0 167
220 184 306 6 29 3 32 -63 66 -155 81 -360 113 -561 87z"/>
<path d="M20351 32563 c-57 -215 -125 -545 -226 -1098 -41 -225 -85 -465 -98
-533 l-24 -122 21 -5 c11 -3 97 -21 191 -39 125 -25 172 -31 178 -23 19 29 48
152 62 263 14 115 47 248 63 258 4 2 43 -6 88 -19 204 -59 485 -72 634 -28
296 87 450 319 438 661 -8 231 -90 355 -316 479 -149 82 -340 135 -699 193
-136 22 -260 43 -275 46 -24 5 -28 2 -37 -33z m450 -419 c178 -33 342 -101
413 -170 82 -79 67 -238 -31 -323 -100 -89 -268 -103 -524 -45 l-66 15 43 217
c24 119 49 241 55 270 6 28 14 52 19 52 4 0 45 -7 91 -16z"/>
<path d="M12805 32018 c-82 -28 -151 -52 -153 -53 -2 -2 -14 -85 -27 -186 -23
-179 -43 -393 -105 -1149 -17 -201 -38 -434 -48 -517 -10 -84 -15 -153 -11
-153 3 0 26 9 50 19 24 11 88 32 142 47 53 15 117 39 141 54 51 33 57 52 80
237 8 66 20 141 27 166 10 43 14 46 77 75 142 65 582 222 622 222 26 0 96 -75
201 -217 55 -73 102 -133 105 -133 3 0 91 27 196 61 132 42 188 65 185 73 -8
21 -686 831 -884 1056 -232 264 -411 450 -432 449 -9 0 -83 -23 -166 -51z
m243 -583 c33 -44 114 -141 180 -215 67 -74 118 -138 114 -141 -4 -4 -99 -36
-211 -72 l-204 -65 6 121 c10 177 39 469 47 460 4 -5 34 -44 68 -88z"/>
<path d="M23591 31713 c-5 -10 -176 -387 -381 -837 -365 -805 -377 -835 -338
-836 15 0 344 -141 663 -284 351 -158 561 -246 586 -246 15 0 106 138 139 211
11 24 20 58 20 76 0 37 5 34 -260 139 -218 87 -468 209 -556 274 l-71 52 27
88 c30 96 61 154 90 170 60 32 187 -9 489 -161 223 -112 311 -146 311 -121 0
5 28 52 62 103 64 98 97 163 98 190 0 17 -128 81 -350 175 -161 67 -299 135
-359 177 -43 29 -43 30 -37 76 9 64 53 195 76 224 19 24 21 24 82 11 140 -29
341 -113 632 -264 95 -50 178 -90 184 -90 6 0 30 28 53 61 45 66 144 267 136
275 -3 3 -114 49 -248 103 -241 97 -506 212 -852 370 -98 45 -180 81 -182 81
-3 0 -8 -8 -14 -17z"/>
<path d="M9437 30335 c-49 -18 -157 -91 -227 -154 l-54 -48 68 -119 c99 -172
268 -441 520 -828 122 -187 257 -396 301 -465 44 -69 83 -125 86 -125 3 -1
256 157 562 349 476 300 555 353 551 370 -21 81 -149 276 -187 283 -21 4 -114
-49 -405 -230 -208 -130 -358 -218 -374 -218 -12 0 -254 372 -438 675 -316
521 -319 525 -343 524 -12 0 -39 -7 -60 -14z"/>
<path d="M26518 30003 c-150 -181 -293 -366 -655 -850 -211 -282 -383 -514
-383 -517 0 -3 231 -181 513 -397 281 -216 517 -396 524 -401 24 -19 153 124
206 229 l27 52 -53 47 c-28 26 -169 138 -312 250 -143 112 -278 219 -299 237
l-39 35 58 83 c98 140 227 309 500 654 320 404 305 385 305 400 0 19 -52 80
-104 123 -26 22 -87 60 -135 86 l-89 46 -64 -77z"/>
<path d="M7358 28574 c-187 -34 -389 -139 -561 -292 -28 -25 -51 -53 -50 -61
1 -8 -20 -40 -46 -71 -104 -120 -154 -219 -186 -365 -26 -116 -17 -328 19
-450 107 -355 382 -637 712 -727 63 -17 106 -21 214 -21 316 1 516 92 744 337
105 114 120 135 175 248 83 169 112 272 118 423 13 283 -89 504 -341 748 -193
185 -523 281 -798 231z m244 -425 c235 -48 478 -325 478 -543 0 -226 -205
-480 -450 -557 -140 -44 -286 -32 -400 33 -82 46 -192 164 -235 251 -69 140
-81 292 -35 425 40 113 56 137 149 224 151 142 326 201 493 167z m573 -779 c4
-6 1 -17 -5 -25 -6 -8 -10 -31 -9 -52 2 -21 0 -44 -5 -51 -11 -18 3 -34 25
-29 21 6 22 5 13 -17 -3 -9 -16 -16 -29 -16 -12 0 -28 -7 -35 -15 -9 -11 -16
-12 -26 -4 -10 8 -19 6 -38 -8 -24 -17 -30 -31 -27 -63 1 -11 -2 -10 -13 4
-10 12 -23 17 -38 13 -22 -6 -23 -5 -3 9 11 8 36 25 55 37 22 14 36 32 38 47
3 29 73 180 84 180 4 0 10 -5 13 -10z"/>
<path d="M28874 28062 c-22 -16 -76 -69 -121 -117 l-81 -89 20 -40 c12 -23 80
-103 153 -178 97 -100 138 -150 151 -183 15 -40 15 -48 3 -59 -8 -7 -255 -215
-549 -461 -294 -246 -539 -452 -545 -457 -20 -18 78 -159 186 -265 34 -35 69
-63 77 -63 15 0 151 114 507 425 317 278 609 515 633 515 5 0 59 -66 120 -147
61 -82 136 -172 166 -202 l55 -54 46 24 c44 23 156 104 224 162 l33 28 -88
117 c-117 154 -243 304 -509 607 -121 138 -260 299 -310 358 -62 74 -96 107
-111 107 -12 0 -39 -13 -60 -28z"/>
<path d="M5121 25850 c-97 -35 -201 -108 -317 -224 -156 -156 -243 -293 -312
-487 -64 -181 -70 -422 -14 -583 42 -121 110 -226 217 -331 182 -181 405 -294
640 -326 138 -18 207 -8 453 68 99 31 222 109 335 214 70 64 84 83 132 183 95
198 135 354 135 526 0 142 -39 310 -72 310 -55 0 -358 -84 -358 -100 0 -4 7
-27 16 -51 20 -55 23 -186 5 -259 -7 -30 -31 -93 -54 -140 -54 -111 -177 -239
-279 -288 -136 -67 -279 -76 -400 -28 -358 145 -481 463 -312 805 36 74 62
110 118 165 72 72 176 137 244 151 17 3 32 9 32 11 0 3 -14 59 -30 126 -30
117 -69 210 -106 255 l-19 22 -54 -19z"/>
<path d="M30153 24886 c-436 -249 -795 -455 -799 -458 -3 -4 5 -22 19 -40 14
-18 44 -71 67 -118 51 -102 93 -163 125 -180 21 -11 37 -4 176 82 192 118 491
289 944 538 531 292 506 277 495 305 -17 44 -62 130 -93 175 -33 48 -126 150
-136 149 -3 0 -363 -204 -798 -453z"/>
<path d="M31130 22868 c-470 -160 -856 -291 -857 -292 -1 -1 23 -67 54 -146
31 -80 116 -319 189 -532 131 -382 218 -615 233 -631 9 -9 160 16 238 40 28 9
64 26 79 38 l28 22 -51 134 c-28 74 -74 194 -102 266 -76 201 -142 449 -141
532 1 23 181 104 236 105 92 2 140 -90 255 -483 33 -113 69 -226 80 -250 18
-41 21 -43 51 -37 18 4 82 16 142 27 59 11 124 26 143 34 47 20 58 -25 -132
525 -30 85 -59 185 -66 222 -11 62 -11 69 6 88 23 26 187 108 232 116 28 6 34
2 56 -33 81 -128 147 -300 243 -630 36 -125 68 -230 70 -232 13 -13 349 71
371 93 3 3 -22 77 -57 163 -93 235 -149 390 -286 787 -68 198 -124 361 -124
363 0 12 -128 -30 -890 -289z"/>
<path d="M3350 22716 c-38 -84 -69 -194 -76 -277 -7 -66 -7 -66 22 -76 16 -6
400 -148 854 -316 454 -168 831 -307 839 -309 9 -2 17 10 23 32 5 19 30 84 55
144 28 68 47 130 50 166 l6 58 -99 32 c-220 73 -547 193 -1076 396 -306 118
-559 214 -563 214 -3 0 -19 -29 -35 -64z"/>
<path d="M19290 22070 c0 -6 -47 -10 -121 -10 -77 0 -118 -4 -114 -10 4 -6
-28 -10 -89 -10 -57 0 -96 -4 -96 -10 0 -6 -32 -10 -75 -10 -62 0 -73 -2 -69
-15 5 -12 -6 -15 -65 -15 -41 0 -71 -4 -71 -10 0 -6 -27 -10 -60 -10 -47 0
-60 -3 -60 -15 0 -11 -12 -15 -45 -15 -33 0 -45 -4 -45 -15 0 -12 -13 -15 -60
-15 -33 0 -60 -4 -60 -10 0 -5 -20 -10 -45 -10 -25 0 -45 -4 -45 -10 0 -5 -20
-10 -44 -10 -30 0 -46 -5 -50 -15 -3 -9 -19 -15 -41 -15 -22 0 -34 -4 -30 -10
4 -6 -12 -10 -40 -10 -31 0 -47 -5 -51 -15 -4 -10 -21 -15 -55 -15 -40 0 -47
-3 -42 -16 5 -14 0 -16 -36 -12 -31 3 -40 0 -37 -9 4 -9 -6 -13 -35 -13 -24 0
-38 -4 -34 -10 4 -6 -13 -10 -44 -10 -39 0 -51 -4 -51 -15 0 -10 -11 -15 -35
-15 -24 0 -35 -5 -35 -15 0 -10 -11 -15 -35 -15 -19 0 -35 -4 -35 -10 0 -5
-16 -10 -35 -10 -26 0 -35 -4 -35 -16 0 -13 -8 -15 -35 -12 -24 3 -35 0 -35
-9 0 -8 -13 -13 -35 -13 -19 0 -35 -4 -35 -10 0 -5 -9 -10 -19 -10 -10 0 -21
-7 -25 -15 -3 -9 -18 -15 -35 -15 -16 0 -31 -6 -35 -15 -3 -9 -18 -15 -36 -15
-16 0 -30 -4 -30 -10 0 -5 -11 -10 -25 -10 -16 0 -25 -6 -25 -16 0 -12 -7 -15
-25 -12 -14 3 -23 1 -22 -6 1 -6 -11 -12 -28 -14 -16 -2 -34 -8 -39 -13 -6 -5
-18 -9 -27 -9 -9 0 -19 -7 -23 -15 -3 -8 -15 -15 -26 -15 -12 0 -20 -7 -20
-16 0 -12 -7 -15 -25 -12 -13 3 -23 1 -22 -5 1 -6 -7 -13 -18 -15 -11 -2 -24
-10 -28 -18 -4 -8 -21 -14 -37 -14 -17 0 -30 -4 -30 -10 0 -5 -11 -10 -25 -10
-14 0 -25 -4 -25 -10 0 -5 -8 -10 -19 -10 -10 0 -24 -7 -31 -15 -7 -8 -21 -15
-31 -15 -11 0 -19 -7 -19 -15 0 -8 -9 -15 -20 -15 -11 0 -20 -4 -20 -10 0 -5
-9 -10 -20 -10 -11 0 -23 -7 -26 -15 -4 -8 -16 -15 -28 -15 -12 0 -28 -9 -36
-20 -8 -11 -23 -20 -33 -20 -9 0 -20 -7 -23 -15 -4 -8 -15 -15 -25 -15 -10 0
-19 -7 -19 -15 0 -9 -9 -15 -25 -15 -15 0 -25 -6 -25 -15 0 -9 -6 -12 -16 -8
-10 4 -20 0 -26 -10 -5 -10 -18 -17 -28 -17 -11 0 -20 -4 -20 -10 0 -5 -11
-10 -25 -10 -14 0 -25 -5 -25 -11 0 -16 -26 -39 -45 -39 -8 0 -18 -7 -21 -15
-4 -8 -14 -15 -24 -15 -10 0 -20 -7 -24 -15 -3 -8 -11 -12 -19 -9 -7 2 -22 -7
-33 -21 -10 -14 -29 -25 -41 -25 -13 0 -23 -4 -23 -10 0 -5 -9 -10 -21 -10
-12 0 -23 -8 -26 -20 -3 -11 -14 -20 -24 -20 -11 0 -19 -4 -19 -10 0 -5 -7
-10 -15 -10 -8 0 -15 -7 -15 -16 0 -11 -6 -15 -20 -11 -13 3 -20 0 -20 -9 0
-8 -10 -14 -25 -14 -14 0 -25 -4 -25 -10 0 -5 -10 -10 -23 -10 -21 0 -54 -35
-49 -52 1 -5 -9 -8 -23 -8 -14 0 -25 -4 -25 -10 0 -5 -12 -10 -26 -10 -14 0
-23 -4 -19 -10 4 -6 -7 -10 -25 -10 -25 0 -31 -4 -26 -15 3 -9 0 -15 -9 -15
-8 0 -15 -4 -15 -9 0 -5 -10 -11 -22 -13 -13 -2 -22 -9 -21 -16 2 -7 -8 -12
-22 -12 -16 0 -25 -6 -25 -15 0 -8 -7 -15 -16 -15 -8 0 -12 -4 -9 -10 3 -6 -5
-10 -18 -10 -14 0 -27 -7 -31 -15 -3 -8 -12 -12 -21 -9 -8 4 -17 -1 -21 -10
-3 -9 -17 -16 -32 -16 -14 0 -23 -3 -19 -6 8 -8 -30 -44 -48 -44 -8 0 -15 -7
-15 -15 0 -9 -9 -15 -23 -15 -12 0 -29 -9 -37 -20 -8 -11 -25 -20 -37 -20 -14
0 -23 -6 -23 -15 0 -9 -9 -15 -23 -15 -15 0 -29 -9 -37 -25 -8 -16 -22 -25
-37 -25 -13 0 -22 -5 -20 -12 1 -6 -7 -14 -18 -16 -11 -2 -28 -14 -38 -26 -11
-11 -25 -20 -33 -18 -8 2 -17 -4 -20 -13 -3 -8 -16 -15 -28 -15 -14 0 -28 -10
-36 -25 -8 -16 -22 -25 -37 -25 -14 0 -23 -6 -23 -16 0 -12 -7 -15 -25 -12
-13 3 -22 1 -19 -4 3 -4 -2 -11 -10 -14 -9 -3 -16 -12 -16 -20 0 -8 -9 -14
-19 -14 -11 0 -23 -4 -26 -10 -3 -5 -14 -10 -25 -10 -10 0 -21 -7 -24 -16 -3
-8 -10 -12 -16 -9 -6 3 -7 -1 -4 -9 5 -12 0 -16 -20 -16 -16 0 -26 -6 -26 -15
0 -9 -9 -15 -23 -15 -12 0 -31 -11 -41 -25 -10 -14 -27 -25 -37 -25 -11 0 -19
-4 -19 -10 0 -5 -9 -10 -21 -10 -22 0 -42 -16 -52 -42 -3 -10 -16 -18 -27 -18
-11 0 -20 -4 -20 -10 0 -5 -9 -10 -21 -10 -22 0 -49 -22 -49 -39 0 -6 -9 -11
-19 -11 -11 0 -28 -11 -39 -25 -11 -14 -29 -25 -41 -25 -12 0 -21 -6 -21 -15
0 -8 -9 -15 -20 -15 -11 0 -20 -4 -20 -10 0 -5 -7 -10 -16 -10 -8 0 -12 -4 -9
-10 4 -6 -5 -10 -19 -10 -16 0 -26 -6 -26 -15 0 -9 -9 -15 -25 -15 -14 0 -25
-5 -25 -11 0 -17 -27 -39 -49 -39 -13 0 -21 -6 -21 -16 0 -12 -7 -15 -24 -12
-17 4 -23 1 -19 -9 3 -7 -2 -13 -11 -13 -9 0 -16 -4 -16 -10 0 -5 -9 -10 -19
-10 -10 0 -21 -7 -25 -15 -3 -8 -15 -15 -26 -15 -11 0 -20 -5 -20 -11 0 -17
-27 -39 -49 -39 -13 0 -21 -6 -21 -16 0 -12 -7 -15 -25 -12 -14 3 -25 1 -25
-4 0 -15 -27 -38 -45 -38 -8 0 -18 -7 -21 -15 -4 -8 -13 -15 -21 -15 -7 0 -24
-11 -37 -25 -13 -14 -30 -25 -39 -25 -8 0 -18 -7 -21 -16 -3 -8 -11 -12 -16
-9 -6 4 -9 1 -8 -7 2 -7 -7 -14 -19 -16 -13 -2 -23 -8 -23 -13 0 -5 -10 -9
-22 -9 -14 0 -31 -12 -43 -30 -13 -19 -29 -30 -43 -30 -13 0 -20 -4 -17 -10 3
-5 -2 -10 -13 -10 -11 0 -28 -11 -38 -25 -10 -14 -29 -25 -41 -25 -13 0 -23
-4 -23 -10 0 -5 -8 -10 -18 -10 -18 0 -52 -33 -52 -50 0 -6 -11 -10 -25 -10
-14 0 -25 -4 -25 -10 0 -5 -7 -10 -15 -10 -9 0 -26 -11 -39 -25 -13 -14 -31
-25 -40 -25 -9 0 -16 -4 -16 -10 0 -5 -8 -10 -18 -10 -18 0 -52 -33 -52 -50 0
-6 -11 -10 -25 -10 -14 0 -25 -4 -25 -10 0 -5 -7 -10 -15 -10 -9 0 -26 -11
-39 -25 -13 -14 -30 -25 -39 -25 -9 0 -24 -11 -35 -25 -11 -14 -27 -25 -35
-25 -8 0 -17 -7 -21 -15 -3 -8 -13 -15 -22 -15 -9 0 -25 -11 -36 -25 -11 -14
-28 -25 -39 -25 -10 0 -19 -4 -19 -10 0 -5 -11 -10 -24 -10 -17 0 -28 -9 -38
-30 -9 -21 -20 -30 -35 -30 -13 0 -23 -4 -23 -10 0 -5 -9 -10 -20 -10 -11 0
-20 -4 -20 -10 0 -5 -7 -10 -15 -10 -8 0 -15 -7 -15 -15 0 -8 -9 -15 -19 -15
-11 0 -23 -4 -26 -10 -3 -5 -14 -10 -23 -10 -18 0 -52 -33 -52 -50 0 -6 -12
-10 -26 -10 -14 0 -23 -4 -19 -10 3 -6 -4 -10 -16 -10 -12 0 -32 -11 -45 -25
-13 -14 -30 -25 -39 -25 -8 0 -15 -4 -15 -10 0 -5 -8 -10 -18 -10 -18 0 -52
-33 -52 -50 0 -6 -10 -10 -23 -10 -12 0 -29 -9 -37 -20 -8 -11 -25 -20 -37
-20 -14 0 -23 -6 -23 -15 0 -8 -9 -15 -19 -15 -11 0 -28 -11 -39 -25 -11 -14
-29 -25 -41 -25 -12 0 -20 -5 -19 -12 2 -6 -6 -14 -17 -16 -11 -2 -27 -13 -36
-23 -9 -11 -26 -19 -38 -19 -12 0 -21 -6 -21 -15 0 -9 -9 -15 -25 -15 -14 0
-25 -5 -25 -11 0 -17 -27 -39 -49 -39 -12 0 -21 -6 -21 -15 0 -8 -7 -15 -15
-15 -9 0 -25 -9 -37 -20 -12 -11 -29 -20 -39 -20 -9 0 -19 -7 -23 -15 -3 -8
-15 -15 -26 -15 -11 0 -20 -5 -20 -11 0 -17 -27 -39 -49 -39 -13 0 -21 -6 -21
-16 0 -12 -7 -15 -25 -12 -13 3 -23 2 -20 -2 5 -9 -32 -40 -48 -40 -14 0 -47
-35 -47 -50 0 -6 -9 -10 -19 -10 -11 0 -23 -4 -26 -10 -3 -5 -13 -10 -22 -10
-8 0 -24 -11 -35 -25 -11 -14 -28 -25 -39 -25 -10 0 -19 -4 -19 -10 0 -5 -9
-10 -19 -10 -11 0 -31 -13 -44 -30 -14 -16 -35 -30 -47 -30 -12 0 -18 -4 -15
-10 4 -6 -5 -10 -19 -10 -14 0 -26 -5 -26 -11 0 -17 -27 -39 -49 -39 -12 0
-21 -4 -21 -10 0 -5 -6 -10 -13 -10 -18 0 -57 -34 -57 -49 0 -6 -11 -11 -25
-11 -16 0 -25 -6 -25 -15 0 -8 -7 -15 -15 -15 -9 0 -25 -9 -37 -20 -12 -11
-29 -20 -39 -20 -9 0 -19 -7 -23 -15 -3 -8 -15 -15 -26 -15 -11 0 -20 -4 -20
-10 0 -5 -8 -10 -18 -10 -19 0 -52 -33 -52 -51 0 -7 -10 -9 -25 -7 -14 3 -23
1 -22 -6 1 -6 -8 -12 -20 -14 -13 -2 -23 -8 -23 -13 0 -5 -11 -9 -25 -9 -16 0
-25 -6 -25 -15 0 -8 -4 -15 -10 -15 -5 0 -10 -7 -10 -15 0 -9 -9 -15 -25 -15
-14 0 -25 -4 -25 -10 0 -5 -9 -10 -19 -10 -10 0 -21 -7 -25 -15 -3 -8 -15 -15
-26 -15 -11 0 -20 -4 -20 -10 0 -5 -9 -10 -21 -10 -22 0 -49 -22 -49 -39 0 -6
-11 -11 -25 -11 -16 0 -25 -6 -25 -15 0 -9 -10 -15 -26 -15 -14 0 -23 -4 -19
-10 4 -6 -6 -10 -24 -10 -24 0 -29 -3 -24 -16 5 -14 1 -16 -20 -12 -19 4 -27
1 -27 -8 0 -8 -11 -14 -25 -14 -14 0 -25 -4 -25 -10 0 -5 -9 -10 -20 -10 -11
0 -23 -7 -26 -15 -4 -8 -15 -15 -25 -15 -10 0 -19 -7 -19 -15 0 -9 -10 -15
-26 -15 -14 0 -23 -4 -19 -10 4 -6 -7 -10 -24 -10 -20 0 -30 -5 -29 -12 2 -8
-7 -13 -19 -12 -13 0 -23 -5 -23 -13 0 -8 -13 -13 -35 -13 -19 0 -35 -4 -35
-10 0 -5 -9 -10 -20 -10 -11 0 -23 -7 -26 -15 -4 -8 -15 -15 -25 -15 -10 0
-19 -7 -19 -15 0 -9 -9 -15 -25 -15 -14 0 -25 -4 -25 -10 0 -5 -11 -10 -25
-10 -16 0 -25 -6 -25 -16 0 -13 -8 -15 -35 -12 -24 3 -35 0 -35 -9 0 -7 -9
-13 -20 -13 -11 0 -20 -4 -20 -10 0 -5 -9 -10 -20 -10 -11 0 -23 -7 -26 -15
-4 -9 -19 -15 -40 -15 -25 0 -34 -4 -34 -16 0 -12 -7 -15 -24 -12 -17 4 -23 1
-19 -9 4 -9 -5 -13 -30 -13 -22 0 -37 -6 -41 -15 -3 -8 -15 -15 -26 -15 -11 0
-20 -4 -20 -10 0 -5 -16 -10 -35 -10 -19 0 -35 -4 -35 -10 0 -5 -14 -10 -30
-10 -18 0 -33 -6 -36 -15 -4 -8 -17 -15 -30 -15 -15 0 -24 -6 -24 -15 0 -10
-11 -15 -35 -15 -19 0 -35 -4 -35 -10 0 -5 -13 -10 -29 -10 -16 0 -34 -7 -41
-15 -7 -8 -25 -15 -41 -15 -16 0 -29 -4 -29 -10 0 -5 -16 -10 -35 -10 -24 0
-35 -5 -35 -15 0 -10 -11 -15 -35 -15 -19 0 -35 -4 -35 -10 0 -5 -13 -10 -30
-10 -16 0 -33 -7 -38 -16 -7 -12 -20 -15 -54 -13 -33 3 -44 1 -41 -8 4 -9 -6
-13 -30 -13 -22 0 -37 -6 -41 -15 -4 -10 -20 -15 -51 -15 -25 0 -45 -4 -45
-10 0 -5 -20 -10 -45 -10 -33 0 -45 -4 -45 -15 0 -11 -12 -15 -50 -15 -35 0
-49 -4 -48 -12 2 -9 -13 -14 -44 -16 -27 -2 -48 -7 -48 -13 0 -5 -20 -9 -45
-9 -25 0 -45 -4 -45 -10 0 -6 -27 -10 -60 -10 -47 0 -60 -3 -60 -15 0 -11 -13
-15 -54 -15 -30 0 -58 -4 -61 -10 -3 -5 -35 -10 -71 -10 -48 0 -66 -4 -70 -15
-5 -11 -23 -15 -75 -15 -55 0 -69 -3 -69 -15 0 -12 -16 -15 -80 -15 -47 0 -80
-4 -80 -10 0 -6 -45 -10 -115 -10 -70 0 -115 -4 -115 -10 0 -6 -80 -10 -220
-10 -187 0 -222 -2 -226 -15 -5 -12 -24 -15 -85 -15 -62 0 -81 3 -85 15 -5 13
-38 15 -210 15 -129 0 -204 4 -204 10 0 6 -47 10 -120 10 -70 0 -120 4 -120
10 0 5 -37 10 -82 12 -60 2 -82 6 -81 16 2 9 -16 12 -66 12 -52 0 -70 4 -75
15 -4 11 -21 15 -61 15 -30 0 -55 5 -55 10 0 6 -27 10 -60 10 -47 0 -60 3 -60
15 0 11 -12 15 -45 15 -25 0 -45 5 -45 10 0 6 -20 10 -45 10 -25 0 -45 4 -45
9 0 6 -21 11 -47 13 -32 2 -47 7 -46 16 2 8 -9 12 -32 12 -22 0 -38 6 -41 15
-4 8 -19 15 -34 15 -16 0 -32 5 -35 10 -3 6 -20 10 -36 10 -17 0 -32 6 -35 15
-4 9 -19 15 -41 15 -20 0 -32 4 -28 10 4 6 -8 10 -30 10 -22 0 -38 6 -41 15
-4 9 -19 15 -41 15 -20 0 -32 4 -28 10 4 6 -10 10 -35 10 -25 0 -39 4 -35 10
3 6 -2 13 -12 16 -10 3 -26 10 -35 15 -10 5 -29 9 -43 9 -14 0 -28 7 -31 15
-4 8 -15 15 -25 15 -10 0 -19 6 -19 14 0 9 -8 12 -25 8 -18 -3 -25 0 -25 12 0
10 -9 16 -24 16 -13 0 -26 7 -30 15 -3 9 -18 15 -36 15 -18 0 -29 4 -25 10 4
6 -5 10 -19 10 -14 0 -26 5 -26 10 0 6 -9 10 -20 10 -11 0 -23 7 -26 15 -4 8
-17 15 -31 15 -17 0 -23 4 -20 13 4 10 -2 13 -19 9 -17 -3 -24 0 -24 12 0 10
-9 16 -25 16 -14 0 -25 5 -25 11 0 17 -27 39 -49 39 -12 0 -21 5 -21 10 0 6
-9 10 -20 10 -11 0 -23 7 -26 15 -4 8 -13 15 -21 15 -17 0 -43 24 -43 39 0 6
-11 11 -24 11 -13 0 -26 7 -30 15 -3 8 -14 15 -23 15 -10 0 -25 9 -33 20 -8
11 -22 20 -31 20 -9 0 -25 11 -35 25 -11 14 -29 25 -42 25 -17 0 -23 4 -18 15
3 9 0 15 -8 15 -7 0 -19 11 -26 25 -8 16 -22 25 -37 25 -14 0 -23 6 -23 16 0
8 -4 13 -8 10 -10 -6 -43 30 -35 38 4 3 -8 6 -26 6 -18 0 -30 4 -26 10 12 19
-29 50 -67 50 -38 0 -38 0 -38 -41 0 -33 6 -47 30 -69 17 -15 30 -33 30 -39 0
-6 7 -11 15 -11 8 0 15 -7 15 -15 0 -8 8 -15 19 -15 10 0 32 -16 48 -35 17
-20 40 -35 52 -35 11 0 21 -5 21 -10 0 -16 55 -70 71 -70 8 0 23 -11 33 -25
10 -14 27 -25 37 -25 11 0 19 -4 19 -10 0 -5 11 -10 25 -10 14 0 25 -5 25 -11
0 -15 26 -39 42 -39 15 0 48 -35 48 -50 0 -6 11 -10 25 -10 14 0 25 -4 25 -10
0 -5 9 -10 20 -10 11 0 20 -4 20 -10 0 -5 11 -10 25 -10 14 0 25 -4 25 -10 0
-17 34 -50 52 -50 10 0 18 -4 18 -10 0 -5 9 -10 20 -10 11 0 23 -7 26 -15 4
-8 15 -15 25 -15 10 0 19 -4 19 -10 0 -5 11 -10 25 -10 14 0 25 -6 25 -13 0
-8 10 -13 22 -13 13 1 22 -4 21 -11 -2 -8 8 -13 27 -13 19 0 29 -5 27 -12 -1
-8 11 -14 28 -16 17 -2 34 -8 40 -13 5 -5 17 -9 27 -9 10 0 18 -7 18 -15 0 -9
10 -15 26 -15 14 0 23 -4 19 -10 -4 -6 10 -10 34 -10 23 0 41 -4 41 -10 0 -5
9 -10 20 -10 11 0 23 -7 26 -15 4 -9 19 -15 40 -15 24 0 34 -5 34 -15 0 -8 9
-15 20 -15 11 0 20 -4 20 -10 0 -5 16 -10 35 -10 26 0 35 -4 35 -16 0 -13 8
-15 35 -12 24 3 35 0 35 -9 0 -8 13 -13 35 -13 19 0 35 -4 35 -10 0 -5 16 -10
35 -10 24 0 35 -5 35 -15 0 -11 12 -15 44 -15 30 0 46 -5 50 -15 3 -9 18 -15
35 -15 16 0 33 -4 36 -10 3 -5 26 -10 51 -10 32 0 44 -4 44 -15 0 -11 12 -15
45 -15 25 0 45 -4 45 -10 0 -5 20 -10 45 -10 25 0 45 -4 45 -10 0 -6 26 -10
59 -10 50 0 59 -3 64 -20 4 -17 14 -20 61 -20 31 0 56 -4 56 -10 0 -6 30 -10
70 -10 40 0 70 -4 70 -10 0 -6 38 -10 95 -10 78 0 95 -3 95 -15 0 -12 19 -15
115 -15 70 0 115 -4 115 -10 0 -7 182 -10 525 -10 343 0 525 3 525 10 0 6 48
10 125 10 104 0 125 2 125 15 0 12 15 15 79 15 44 0 83 5 86 10 3 6 42 10 86
10 46 0 79 4 79 10 0 6 29 10 66 10 57 0 67 3 71 20 5 17 14 20 64 20 33 0 59
4 59 10 0 6 27 10 61 10 37 0 58 4 54 10 -4 6 13 10 44 10 39 0 51 4 51 15 0
11 13 15 54 15 30 0 58 5 61 10 3 6 26 10 51 10 32 0 44 4 44 15 0 11 12 15
45 15 33 0 45 4 45 15 0 10 11 15 35 15 19 0 35 5 35 10 0 6 20 10 45 10 25 0
45 5 45 10 0 6 16 10 35 10 24 0 35 5 35 15 0 11 12 15 50 15 28 0 50 5 50 10
0 6 14 10 30 10 18 0 33 6 36 15 4 9 19 15 40 15 25 0 34 4 34 16 0 13 8 15
35 12 24 -3 35 0 35 9 0 8 12 13 29 13 17 0 33 5 36 10 3 6 22 10 41 10 24 0
34 5 34 15 0 10 11 15 35 15 19 0 35 4 35 9 0 5 10 11 23 13 12 2 21 9 19 16
-1 8 12 12 38 12 29 0 40 4 40 15 0 11 11 15 36 15 21 0 33 4 29 10 -4 6 5 10
19 10 14 0 26 5 26 10 0 6 16 10 35 10 24 0 35 5 35 15 0 9 9 15 25 15 14 0
25 4 25 9 0 5 11 12 25 15 14 4 25 11 25 16 0 6 16 10 35 10 22 0 34 4 33 12
-2 7 7 14 20 16 12 2 22 8 22 13 0 5 11 9 25 9 14 0 25 5 25 10 0 6 16 10 35
10 24 0 35 5 35 15 0 9 9 15 25 15 14 0 24 5 23 12 -2 7 7 14 20 16 12 2 22 8
22 13 0 5 11 9 25 9 16 0 25 6 25 15 0 8 9 15 20 15 11 0 20 5 20 10 0 6 11
10 25 10 14 0 25 5 25 10 0 6 9 10 20 10 11 0 23 7 26 15 4 8 14 15 24 15 10
0 20 7 24 15 3 8 15 15 26 15 11 0 20 5 20 10 0 6 9 10 20 10 11 0 23 7 26 15
4 8 14 15 24 15 11 0 22 5 25 10 3 6 14 10 25 10 10 0 20 7 24 15 3 8 14 15
25 15 11 0 23 5 26 10 3 6 15 10 26 10 10 0 19 7 19 15 0 9 9 15 25 15 16 0
25 6 25 15 0 8 9 15 20 15 11 0 20 5 20 10 0 6 11 10 25 10 14 0 25 5 25 10 0
6 9 10 20 10 11 0 23 7 26 15 4 8 15 15 25 15 10 0 19 5 19 10 0 6 8 10 18 10
18 0 52 33 52 50 0 6 11 10 25 10 14 0 25 5 25 10 0 6 9 10 20 10 11 0 20 5
20 10 0 6 11 10 25 10 16 0 25 6 25 15 0 9 9 15 25 15 14 0 25 5 25 11 0 17
27 39 49 39 12 0 21 6 21 15 0 8 9 15 20 15 11 0 20 5 20 10 0 6 10 10 23 10
12 0 31 11 41 25 10 14 27 25 37 25 11 0 19 7 19 15 0 9 9 15 25 15 14 0 25 5
25 10 0 6 9 10 19 10 10 0 22 7 25 16 3 8 11 12 16 9 6 -4 9 -1 8 7 -2 7 7 14
20 16 12 2 22 8 22 13 0 5 11 9 24 9 17 0 28 9 38 30 10 23 19 30 41 30 16 0
26 4 22 10 -4 6 5 10 19 10 16 0 25 5 24 13 -2 6 5 11 15 10 12 0 16 4 13 13
-4 10 2 14 19 14 14 0 25 5 25 10 0 6 9 10 20 10 11 0 23 7 26 15 4 8 17 15
30 15 17 0 22 4 18 15 -4 10 0 15 11 15 9 0 13 5 10 10 -3 6 5 10 18 10 14 0
27 7 31 15 3 8 14 15 23 15 10 0 25 9 33 20 8 11 23 20 33 20 9 0 20 7 23 15
4 8 17 15 30 15 15 0 24 6 24 15 0 8 7 15 16 15 9 0 27 12 39 26 15 17 29 25
39 21 10 -4 16 -1 16 8 0 9 9 15 23 15 15 0 29 9 37 25 8 16 22 25 37 25 14 0
23 6 23 15 0 8 9 15 20 15 11 0 20 5 20 10 0 6 7 10 15 10 8 0 15 7 15 15 0 8
9 15 19 15 11 0 23 5 26 10 3 6 15 10 26 10 10 0 19 5 19 10 0 6 8 10 18 10
18 0 52 33 52 50 0 6 11 10 25 10 14 0 25 5 25 10 0 6 7 10 15 10 9 0 26 11
39 25 13 14 31 25 40 25 9 0 16 4 16 9 0 5 11 12 25 15 14 4 25 13 25 21 0 9
9 15 23 15 12 0 29 9 37 20 8 11 25 20 37 20 14 0 23 6 23 15 0 8 8 15 18 15
22 1 52 23 52 40 0 8 8 10 21 7 15 -4 23 0 26 14 4 12 14 19 30 19 13 0 21 4
18 10 -3 6 1 10 9 10 9 0 16 5 16 10 0 6 9 10 20 10 11 0 23 7 26 15 4 8 15
15 25 15 10 0 19 5 19 10 0 6 8 10 18 10 18 0 52 33 52 50 0 6 11 10 25 10 14
0 25 5 25 10 0 6 9 10 20 10 11 0 20 5 20 10 0 6 7 10 15 10 8 0 15 7 15 15 0
8 9 15 20 15 11 0 20 5 20 10 0 6 8 10 19 10 10 0 28 14 41 30 13 17 31 30 41
30 11 0 19 5 19 10 0 6 9 10 20 10 11 0 20 5 20 10 0 6 11 10 25 10 16 0 25 6
25 15 0 8 7 15 15 15 8 0 15 7 15 15 0 8 9 15 20 15 11 0 20 5 20 10 0 6 11
10 25 10 14 0 25 5 25 11 0 17 27 39 49 39 12 0 21 5 21 10 0 6 7 10 15 10 17
0 55 35 55 50 0 6 9 10 20 10 11 0 20 5 20 10 0 6 11 10 25 10 16 0 25 6 25
16 0 10 6 14 15 10 8 -3 14 0 12 7 -1 6 8 13 21 15 12 2 22 8 22 13 0 5 8 9
19 9 10 0 24 7 31 15 7 8 21 15 31 15 11 0 19 5 19 11 0 17 27 39 49 39 12 0
21 6 21 15 0 8 8 15 18 15 10 0 28 9 40 20 12 11 28 20 37 20 9 0 18 7 21 15
4 8 15 15 25 15 11 0 19 7 19 16 0 11 5 14 16 10 12 -4 15 -2 10 9 -4 10 1 15
15 15 11 0 22 7 25 15 4 8 16 15 28 15 12 0 28 9 36 20 8 11 23 20 33 20 9 0
20 7 23 15 4 8 14 15 24 15 10 0 20 7 24 15 3 8 14 15 25 15 10 0 22 7 25 16
3 8 11 12 16 9 6 -4 9 -1 8 7 -2 7 7 14 20 16 12 2 22 8 22 13 0 5 11 9 25 9
14 0 25 5 25 11 0 16 26 39 45 39 8 0 18 7 21 15 4 8 14 15 24 15 10 0 21 7
24 16 3 8 10 12 16 9 5 -3 10 1 10 9 0 9 9 16 20 16 11 0 20 5 20 10 0 6 11
10 25 10 14 0 25 4 25 10 0 17 34 50 52 50 10 0 18 5 18 10 0 6 11 10 25 10
16 0 25 6 25 15 0 8 9 15 20 15 11 0 20 5 20 10 0 6 7 10 15 10 8 0 15 5 15
10 0 6 9 10 20 10 11 0 23 7 26 15 4 8 17 15 31 15 18 0 24 4 19 15 -3 9 0 15
10 15 8 0 12 5 9 10 -4 6 7 10 24 10 20 0 30 5 28 13 -1 7 8 12 21 11 12 0 22
3 22 8 0 15 27 38 45 38 8 0 18 7 21 15 4 8 17 15 30 15 15 0 24 6 24 15 0 8
9 15 20 15 11 0 20 5 20 10 0 6 7 10 15 10 8 0 15 7 15 16 0 11 6 15 20 11 13
-3 20 0 20 9 0 8 9 14 21 14 22 0 49 22 49 39 0 6 11 11 25 11 16 0 25 6 25
15 0 8 9 15 20 15 11 0 20 5 20 10 0 6 9 10 21 10 12 0 30 11 41 25 11 14 28
25 39 25 10 0 19 5 19 10 0 6 8 10 18 10 18 0 52 33 52 50 0 6 11 10 25 10 14
0 25 5 25 10 0 6 9 10 19 10 10 0 21 6 24 14 4 9 14 12 26 9 15 -4 21 -1 21
11 0 9 7 16 15 16 8 0 14 6 12 12 -1 7 8 14 21 16 12 2 22 8 22 13 0 5 11 9
25 9 16 0 25 6 25 16 0 12 7 15 24 12 15 -3 23 -1 20 6 -5 12 78 66 102 66 8
0 17 7 20 15 4 8 15 15 25 15 10 0 19 5 19 10 0 6 12 10 26 10 14 0 23 4 20 8
-7 12 31 42 54 42 11 0 20 7 20 15 0 8 9 15 19 15 11 0 23 5 26 10 3 6 15 10
26 10 10 0 19 7 19 15 0 9 9 15 25 15 14 0 25 5 25 11 0 17 27 39 49 39 12 0
21 5 21 10 0 6 9 10 19 10 10 0 21 7 25 15 3 8 15 15 26 15 11 0 20 5 20 10 0
6 9 10 20 10 11 0 23 7 26 15 4 8 17 15 31 15 13 0 22 4 19 8 -7 11 30 42 49
42 8 0 15 5 15 10 0 6 11 10 25 10 16 0 25 6 25 15 0 9 9 15 25 15 16 0 25 6
25 15 0 8 9 15 20 15 11 0 20 5 20 10 0 6 11 10 25 10 16 0 25 6 25 15 0 9 9
15 25 15 14 0 25 5 25 10 0 6 9 10 20 10 11 0 20 5 20 10 0 6 11 10 25 10 16
0 25 6 25 15 0 9 9 15 25 15 16 0 25 6 25 15 0 8 9 15 20 15 11 0 20 5 20 10
0 6 11 10 25 10 16 0 25 6 25 16 0 12 7 15 25 12 17 -4 25 -1 25 8 0 8 11 14
26 14 14 0 23 4 19 10 -4 6 8 10 30 10 22 0 38 6 41 15 4 8 17 15 30 15 17 0
22 4 18 15 -5 11 1 15 20 15 14 0 26 5 26 10 0 6 16 10 35 10 24 0 35 5 35 15
0 9 9 15 25 15 14 0 25 5 25 10 0 6 13 10 29 10 17 0 33 5 36 10 3 6 14 10 25
10 10 0 20 7 24 15 3 9 18 15 36 15 20 0 30 5 30 15 0 10 11 15 35 15 19 0 35
5 35 10 0 6 16 10 35 10 24 0 35 5 35 15 0 10 11 15 35 15 19 0 35 5 35 10 0
6 16 10 35 10 19 0 35 5 35 10 0 6 20 10 45 10 33 0 45 4 45 15 0 10 10 15 34
15 22 0 36 6 40 16 4 12 16 15 40 12 24 -3 32 0 29 9 -4 9 8 13 41 13 32 0 48
5 52 15 4 10 20 15 50 15 24 0 44 5 44 10 0 6 16 10 35 10 19 0 35 5 35 10 0
6 20 10 45 10 31 0 47 5 51 15 4 10 20 15 50 15 32 0 44 4 44 15 0 12 13 15
60 15 33 0 60 4 60 10 0 6 20 10 45 10 33 0 45 4 45 15 0 12 14 15 70 15 40 0
70 4 70 10 0 6 27 10 60 10 33 0 60 4 60 10 0 6 28 10 64 10 48 0 65 4 70 15
4 12 25 15 96 15 73 0 90 3 90 15 0 13 21 15 129 15 80 0 131 4 133 10 4 14
704 14 701 0 -2 -6 42 -10 117 -10 100 0 120 -2 120 -15 0 -12 14 -15 69 -15
52 0 70 -4 75 -15 4 -11 22 -15 71 -15 37 0 65 -4 65 -10 0 -6 27 -10 60 -10
33 0 60 -4 60 -10 0 -5 20 -10 44 -10 30 0 46 -5 50 -15 3 -10 19 -15 46 -15
22 0 40 -4 40 -10 0 -5 23 -10 50 -10 38 0 50 -4 50 -15 0 -11 12 -15 44 -15
30 0 46 -5 50 -15 3 -9 18 -15 35 -15 16 0 33 -4 36 -10 3 -5 19 -10 36 -10
16 0 29 -4 29 -10 0 -5 15 -10 34 -10 21 0 36 -6 40 -15 3 -9 18 -15 36 -15
18 0 30 -5 30 -13 0 -9 11 -12 35 -9 27 3 35 1 35 -12 0 -10 9 -16 25 -16 16
0 25 -6 25 -15 0 -10 11 -15 35 -15 19 0 35 -4 35 -10 0 -5 11 -10 25 -10 14
0 25 -4 25 -10 0 -5 9 -10 20 -10 11 0 20 -7 20 -15 0 -10 11 -15 35 -15 19 0
35 -4 35 -10 0 -5 11 -10 25 -10 16 0 25 -6 25 -15 0 -8 9 -15 20 -15 11 0 23
-7 26 -15 4 -8 15 -15 25 -15 10 0 19 -4 19 -10 0 -5 11 -10 25 -10 14 0 25
-4 25 -10 0 -5 8 -10 17 -10 10 0 27 -11 38 -24 11 -13 29 -26 40 -28 11 -2
19 -10 17 -16 -1 -7 5 -12 13 -12 8 0 15 -7 15 -15 0 -9 9 -15 23 -15 12 0 29
-9 37 -20 8 -11 22 -20 31 -20 9 0 25 -11 35 -25 10 -14 27 -25 36 -25 10 0
18 -7 18 -15 0 -8 7 -15 15 -15 8 0 15 -5 15 -10 0 -14 46 -60 60 -60 5 0 10
-5 10 -11 0 -6 16 -26 35 -45 19 -18 35 -36 35 -39 0 -10 49 -55 60 -55 5 0
10 -5 10 -10 0 -6 9 -20 20 -32 11 -12 20 -29 20 -38 0 -10 11 -26 25 -36 14
-10 23 -25 20 -33 -3 -7 6 -25 20 -39 14 -13 25 -33 25 -44 0 -10 6 -21 14
-24 8 -3 12 -12 10 -19 -3 -8 3 -19 14 -26 12 -7 17 -19 15 -30 -3 -11 1 -21
11 -25 9 -3 16 -17 16 -30 0 -13 5 -24 10 -24 6 0 10 -16 10 -35 0 -22 5 -35
13 -35 9 0 11 -12 9 -40 -3 -32 -1 -40 12 -40 13 0 16 -11 16 -50 0 -27 5 -50
10 -50 6 0 10 -32 10 -75 0 -53 4 -75 13 -75 16 0 14 -293 -2 -298 -7 -2 -11
-38 -11 -88 0 -49 -4 -84 -10 -84 -5 0 -10 -19 -11 -42 l-1 -43 -12 39 c-7 22
-18 42 -24 44 -7 2 -12 10 -12 18 0 8 -4 13 -8 11 -8 -2 -62 48 -62 57 0 13
-61 66 -75 66 -16 0 -45 22 -45 34 0 12 -35 46 -48 46 -16 0 -42 24 -42 39 0
6 -11 11 -25 11 -14 0 -25 5 -25 10 0 6 -11 10 -25 10 -14 0 -25 5 -25 10 0 6
-14 10 -30 10 -18 0 -33 6 -36 15 -4 8 -15 15 -25 15 -10 0 -19 7 -19 15 0 10
-11 15 -35 15 -19 0 -35 5 -35 10 0 6 -27 10 -60 10 -47 0 -60 3 -60 15 0 12
-16 15 -80 15 -47 0 -80 4 -80 10 0 6 -83 10 -230 10 -147 0 -230 -4 -230 -10
0 -6 -38 -10 -94 -10 -74 0 -95 -3 -100 -15 -4 -11 -22 -15 -70 -15 -36 0 -68
-4 -71 -10 -3 -5 -26 -10 -51 -10 -32 0 -44 -4 -44 -15 0 -10 -11 -15 -35 -15
-24 0 -35 -5 -35 -15 0 -10 -11 -15 -35 -15 -19 0 -35 -4 -35 -10 0 -5 -16
-10 -35 -10 -19 0 -35 -4 -35 -10 0 -5 -9 -10 -19 -10 -10 0 -21 -7 -25 -15
-3 -8 -15 -15 -26 -15 -11 0 -20 -4 -20 -10 0 -5 -8 -10 -18 -10 -19 0 -52
-33 -52 -51 0 -7 -10 -9 -25 -7 -13 3 -23 2 -20 -2 7 -11 -34 -40 -56 -40 -11
0 -17 -5 -14 -10 3 -6 -1 -13 -9 -16 -9 -3 -16 -10 -16 -16 0 -13 -26 -38 -39
-38 -6 0 -10 -4 -9 -8 2 -4 -18 -29 -44 -55 -27 -26 -48 -49 -48 -53 0 -10
-28 -34 -40 -34 -6 0 -8 -5 -5 -11 4 -6 -3 -13 -14 -16 -13 -3 -21 -12 -19
-22 2 -9 -10 -28 -26 -43 -17 -16 -26 -32 -23 -41 3 -9 -1 -18 -10 -21 -9 -4
-13 -14 -10 -26 3 -13 0 -20 -9 -20 -8 0 -14 -10 -14 -24 0 -13 -7 -27 -16
-30 -10 -4 -13 -13 -9 -25 4 -12 0 -21 -11 -25 -10 -4 -14 -13 -11 -26 3 -13
0 -20 -9 -20 -9 0 -14 -12 -14 -36 0 -19 -7 -43 -16 -51 -10 -11 -14 -28 -12
-49 2 -21 -1 -35 -9 -38 -9 -4 -13 -27 -13 -75 0 -38 -4 -73 -10 -76 -6 -4
-10 -113 -10 -296 0 -186 4 -289 10 -289 6 0 10 -35 10 -85 0 -64 4 -87 14
-91 10 -4 12 -16 9 -43 -4 -26 0 -42 11 -53 10 -11 16 -34 16 -62 0 -31 4 -46
13 -46 9 0 12 -11 9 -35 -3 -25 0 -36 11 -41 9 -3 13 -12 10 -20 -3 -7 2 -17
11 -20 11 -4 16 -19 16 -45 0 -27 4 -39 14 -39 9 0 12 -7 9 -20 -3 -12 1 -22
10 -26 11 -4 14 -15 10 -40 -5 -29 -3 -34 14 -34 16 0 19 -5 15 -25 -3 -16 1
-27 11 -31 8 -3 13 -13 10 -23 -3 -13 2 -20 17 -24 12 -3 19 -10 15 -16 -3 -6
0 -11 8 -11 10 0 13 -7 10 -20 -3 -12 1 -22 11 -26 9 -3 16 -16 16 -29 0 -13
7 -26 16 -29 8 -3 12 -10 9 -16 -3 -6 1 -7 10 -4 13 5 15 2 9 -20 -5 -20 -2
-26 10 -26 11 0 16 -9 16 -30 0 -16 5 -30 10 -30 20 0 60 -49 60 -72 0 -13 9
-30 20 -38 11 -8 20 -25 20 -37 0 -13 5 -23 10 -23 6 0 20 -9 32 -20 12 -11
19 -20 15 -20 -4 0 8 -15 28 -34 19 -19 35 -44 35 -55 0 -12 6 -21 15 -21 8 0
15 -6 15 -13 0 -7 9 -19 20 -27 11 -8 20 -20 20 -27 0 -7 5 -13 11 -13 11 0
39 -25 39 -35 0 -10 28 -35 39 -35 6 0 11 -6 11 -13 0 -7 9 -19 20 -27 11 -8
20 -18 20 -22 0 -13 39 -48 53 -48 15 0 67 -44 67 -56 0 -5 11 -18 25 -28 13
-10 22 -22 19 -27 -3 -5 4 -9 16 -9 11 0 36 -16 54 -35 19 -19 41 -35 49 -35
8 0 24 -13 37 -30 13 -16 32 -30 42 -30 11 0 16 -4 13 -10 -3 -5 1 -10 9 -10
9 0 16 -7 16 -15 0 -9 10 -15 26 -15 14 0 23 -4 19 -10 -3 -5 1 -10 9 -10 9 0
16 -4 16 -10 0 -5 11 -10 25 -10 18 0 23 -4 19 -15 -5 -11 1 -15 25 -15 19 0
30 -5 28 -12 -1 -7 8 -14 21 -16 12 -2 22 -8 22 -13 0 -5 11 -9 25 -9 16 0 25
-6 25 -15 0 -9 9 -15 25 -15 14 0 25 -4 25 -10 0 -5 9 -10 20 -10 11 0 20 -4
20 -10 0 -5 11 -10 25 -10 16 0 25 -6 25 -15 0 -8 9 -15 20 -15 11 0 23 -7 26
-15 4 -8 15 -15 25 -15 10 0 19 -4 19 -10 0 -5 15 -10 34 -10 21 0 36 -6 40
-15 3 -8 15 -15 26 -15 11 0 20 -4 20 -10 0 -5 16 -10 35 -10 19 0 35 -4 35
-10 0 -5 15 -10 34 -10 25 0 35 -5 39 -20 4 -16 14 -20 46 -20 23 0 41 -4 41
-10 0 -5 16 -10 35 -10 19 0 35 -4 35 -10 0 -6 27 -10 60 -10 47 0 60 -3 60
-15 0 -12 13 -15 55 -15 30 0 55 -4 55 -10 0 -6 30 -10 70 -10 40 0 70 -4 70
-10 0 -6 42 -10 105 -10 63 0 105 -4 105 -10 0 -6 128 -10 364 -10 233 0 367
4 371 10 4 6 72 10 170 10 98 0 166 4 170 10 4 6 63 10 146 10 86 0 139 4 139
10 0 6 45 10 115 10 96 0 115 3 115 15 0 12 18 15 105 15 63 0 105 4 105 10 0
6 42 10 105 10 63 0 105 4 105 10 0 6 37 10 91 10 82 0 91 2 96 20 5 18 14 20
100 20 60 0 92 4 88 10 -4 6 25 10 79 10 51 0 86 4 86 10 0 6 33 10 80 10 64
0 80 3 80 15 0 12 15 15 79 15 44 0 83 5 86 10 3 6 42 10 86 10 64 0 79 3 79
15 0 12 16 15 80 15 64 0 80 3 80 15 0 12 14 15 70 15 40 0 70 4 70 10 0 6 35
10 86 10 54 0 83 4 79 10 -4 6 20 10 65 10 54 0 72 4 76 15 5 11 23 15 75 15
39 0 69 4 69 10 0 6 33 10 80 10 64 0 80 3 80 15 0 12 14 15 70 15 56 0 70 3
70 15 0 12 14 15 70 15 40 0 70 4 70 10 0 6 30 10 70 10 49 0 70 4 70 13 0 8
15 11 51 8 39 -2 53 1 63 14 10 14 25 16 79 13 49 -2 67 0 67 10 0 8 20 12 65
12 49 0 67 4 71 15 5 11 23 15 75 15 55 0 69 3 69 15 0 12 13 15 61 15 37 0
58 4 54 10 -4 6 20 10 64 10 41 0 71 4 71 10 0 6 30 10 69 10 52 0 70 4 75 15
4 11 22 15 71 15 37 0 65 4 65 10 0 6 28 10 65 10 49 0 67 4 71 15 5 11 23 15
74 15 53 0 69 4 74 16 5 13 20 15 86 12 59 -2 80 0 80 10 0 8 20 12 64 12 36
0 68 5 71 10 3 6 47 10 96 10 70 0 91 3 95 15 5 12 27 15 110 15 86 0 104 3
104 15 0 12 17 15 90 15 53 0 90 4 90 10 0 6 33 10 79 10 61 0 80 3 85 15 4
12 25 15 96 15 53 0 90 4 90 10 0 6 38 10 95 10 57 0 95 4 95 10 0 6 40 10
100 10 80 0 102 3 106 15 5 12 28 15 119 15 91 0 114 3 119 15 4 12 30 15 141
15 83 0 135 4 135 10 0 6 72 10 195 10 165 0 197 2 201 15 5 13 45 15 275 15
232 0 269 -2 269 -15 0 -13 25 -15 165 -15 125 0 165 -3 165 -12 0 -10 26 -12
105 -10 90 3 105 1 105 -12 0 -13 14 -16 80 -16 62 0 81 -3 88 -16 7 -12 21
-15 61 -13 36 3 51 0 51 -8 0 -9 19 -13 60 -13 33 0 60 -4 60 -10 0 -5 20 -10
45 -10 33 0 45 -4 45 -15 0 -11 12 -15 45 -15 25 0 45 -4 45 -10 0 -5 20 -10
45 -10 31 0 47 -5 51 -15 4 -9 19 -15 35 -15 17 0 32 -6 35 -15 4 -9 19 -15
40 -15 19 0 34 -4 34 -10 0 -5 23 -10 50 -10 l50 0 0 39 c0 55 -8 71 -36 71
-13 0 -24 6 -24 13 0 9 -11 12 -35 9 -27 -3 -35 -1 -35 12 0 12 -9 16 -35 16
-19 0 -35 5 -35 10 0 6 -11 10 -25 10 -16 0 -25 6 -25 15 0 10 -11 15 -35 15
-24 0 -35 5 -35 15 0 11 -11 15 -36 15 -21 0 -33 4 -29 10 4 6 -13 10 -44 10
-34 0 -51 4 -51 13 0 8 -14 11 -45 9 -36 -3 -45 -1 -45 12 0 13 -11 16 -51 16
-31 0 -48 4 -44 10 4 6 -13 10 -44 10 -39 0 -51 4 -51 15 0 12 -13 15 -60 15
-43 0 -59 4 -58 13 2 8 -18 13 -69 15 -40 2 -73 7 -73 12 0 6 -36 10 -80 10
-47 0 -80 4 -80 10 0 6 -42 10 -105 10 -87 0 -105 3 -105 15 0 13 -26 15 -175
15 -110 0 -175 4 -175 10 0 7 -150 10 -430 10 -280 0 -430 -3 -430 -10 0 -6
-73 -10 -200 -10 -174 0 -200 -2 -200 -16 0 -13 -19 -15 -140 -12 -107 2 -140
0 -140 -9 0 -10 -33 -13 -130 -13 -80 0 -130 -4 -130 -10 0 -6 -48 -10 -125
-10 -104 0 -125 -2 -125 -15 0 -13 -21 -15 -130 -15 -109 0 -130 -2 -130 -15
0 -13 -22 -15 -140 -15 -87 0 -140 -4 -140 -10 0 -6 -36 -10 -89 -10 -71 0
-90 -3 -95 -16 -5 -12 -23 -15 -98 -14 -64 2 -92 -1 -90 -9 1 -7 -29 -11 -93
-11 -57 0 -95 -4 -95 -10 0 -6 -37 -10 -90 -10 -71 0 -92 -3 -96 -15 -5 -12
-24 -15 -85 -15 -64 0 -79 -3 -79 -15 0 -12 -16 -15 -80 -15 -47 0 -80 -4 -80
-10 0 -6 -38 -10 -95 -10 -80 0 -95 -3 -95 -16 0 -13 -13 -15 -84 -12 -64 2
-82 0 -79 -9 4 -10 -16 -13 -81 -13 -51 0 -86 -4 -86 -10 0 -6 -32 -10 -75
-10 -58 0 -77 -4 -81 -15 -5 -12 -25 -15 -90 -15 -68 0 -84 -3 -84 -15 0 -12
-16 -15 -80 -15 -47 0 -80 -4 -80 -10 0 -6 -36 -10 -89 -10 -71 0 -90 -3 -95
-16 -5 -12 -21 -15 -83 -13 -51 1 -78 -2 -81 -9 -2 -8 -32 -12 -82 -12 -43 0
-82 -4 -85 -10 -3 -5 -44 -10 -91 -10 -66 0 -86 -3 -90 -15 -5 -12 -25 -15
-90 -15 -62 0 -83 -3 -82 -12 2 -10 -22 -14 -89 -16 -51 -1 -93 -7 -93 -12 0
-6 -39 -10 -90 -10 -71 0 -92 -3 -96 -15 -5 -12 -27 -15 -110 -15 -63 0 -104
-4 -104 -10 0 -6 -37 -10 -90 -10 -71 0 -92 -3 -96 -15 -5 -12 -28 -15 -120
-15 -69 0 -114 -4 -114 -10 0 -6 -45 -10 -115 -10 -96 0 -115 -3 -115 -15 0
-13 -21 -15 -130 -15 -97 0 -130 -3 -130 -12 0 -10 -36 -12 -157 -10 -133 3
-158 1 -165 -12 -8 -14 -41 -16 -238 -16 -142 0 -231 -4 -235 -10 -4 -6 -93
-10 -236 -10 -146 0 -229 4 -229 10 0 6 -50 10 -129 10 -105 0 -130 3 -135 15
-4 12 -24 15 -86 15 -47 0 -80 4 -80 10 0 6 -24 10 -54 10 -39 0 -55 4 -60 15
-4 10 -20 15 -51 15 -25 0 -45 5 -45 10 0 6 -20 10 -45 10 -33 0 -45 4 -45 15
0 10 -11 15 -35 15 -19 0 -35 5 -35 10 0 6 -16 10 -35 10 -24 0 -35 5 -35 15
0 10 -11 15 -35 15 -19 0 -35 5 -35 10 0 6 -16 10 -35 10 -24 0 -35 5 -35 15
0 9 -10 15 -26 15 -14 0 -22 4 -19 10 3 5 -6 12 -20 16 -14 3 -25 10 -25 15 0
5 -15 9 -34 9 -21 0 -36 6 -40 15 -3 8 -11 12 -19 9 -8 -3 -20 2 -27 11 -7 8
-21 15 -32 15 -10 0 -16 5 -13 10 3 6 -1 10 -9 10 -9 0 -16 7 -16 15 0 9 -9
15 -25 15 -14 0 -24 5 -22 12 1 7 -8 14 -20 16 -13 2 -23 8 -23 13 0 5 -11 9
-25 9 -16 0 -25 6 -25 16 0 8 -5 12 -10 9 -6 -3 -13 1 -16 9 -3 9 -12 16 -20
16 -18 0 -54 31 -48 42 3 4 -4 8 -15 8 -22 0 -63 34 -53 44 3 3 -2 6 -11 6 -9
0 -17 4 -17 9 0 5 -10 11 -22 13 -13 2 -22 9 -21 16 2 6 -2 12 -8 12 -12 0
-39 25 -39 36 0 3 -16 21 -35 40 -19 18 -35 37 -35 43 0 6 -7 8 -15 5 -14 -6
-75 45 -75 61 0 3 -16 21 -35 39 -19 19 -35 44 -35 55 0 12 -5 21 -11 21 -12
0 -39 25 -39 36 0 3 -16 21 -35 40 -19 18 -35 40 -35 50 0 9 -16 31 -35 50
-19 18 -35 41 -35 51 0 10 -9 25 -20 33 -11 8 -20 24 -20 36 0 12 -11 30 -25
40 -14 10 -25 27 -25 37 0 10 -10 28 -23 40 -13 12 -21 30 -19 40 2 9 -4 20
-12 23 -9 3 -16 17 -16 30 0 13 -4 24 -10 24 -5 0 -10 9 -10 20 0 11 -6 23
-14 26 -8 3 -12 13 -9 25 3 11 -1 21 -11 25 -10 4 -16 18 -16 40 0 19 -4 34
-10 34 -5 0 -10 11 -10 25 0 14 -6 25 -13 25 -9 0 -12 11 -9 35 3 25 0 36 -12
41 -10 4 -16 18 -16 40 0 19 -4 34 -10 34 -5 0 -10 23 -10 50 0 34 -4 50 -13
50 -9 0 -11 19 -9 75 4 64 2 75 -12 75 -14 0 -16 23 -16 199 0 174 2 200 16
205 13 5 16 18 12 66 -3 45 -1 60 9 60 8 0 13 13 13 35 0 19 5 35 10 35 6 0
10 18 10 40 0 30 4 40 16 40 9 0 14 7 12 18 -2 9 6 27 19 39 13 12 23 31 23
43 0 11 5 20 10 20 6 0 10 7 10 15 0 8 7 15 15 15 8 0 15 8 15 18 0 10 9 28
20 40 11 12 20 24 20 27 0 10 28 35 39 35 6 0 11 7 11 15 0 8 9 15 20 15 11 0
20 4 20 9 0 5 16 16 35 25 19 9 35 21 35 26 0 6 7 10 15 10 8 0 15 7 15 15 0
8 9 15 19 15 10 0 21 7 25 15 3 9 18 15 36 15 16 0 30 5 30 10 0 6 11 10 25
10 14 0 25 5 25 10 0 6 16 10 35 10 22 0 35 5 35 13 0 9 12 11 40 9 30 -3 41
0 46 12 5 13 21 16 75 16 55 0 69 3 69 15 0 13 21 15 129 15 105 0 130 3 135
15 4 11 22 15 71 15 49 0 67 -4 71 -15 5 -12 26 -15 105 -15 79 0 101 -3 105
-15 4 -8 17 -15 31 -15 13 0 32 -7 40 -16 9 -9 26 -14 39 -11 14 2 25 -2 28
-9 3 -8 15 -14 26 -14 11 0 20 -4 20 -10 0 -5 11 -10 25 -10 14 0 25 -4 25
-10 0 -5 9 -10 20 -10 11 0 20 -7 20 -15 0 -8 7 -15 15 -15 8 0 15 -7 15 -15
0 -8 7 -15 16 -15 23 0 145 -126 138 -143 -3 -9 4 -21 15 -29 12 -8 18 -18 14
-21 -3 -4 1 -7 9 -7 11 0 14 -6 11 -20 -3 -12 1 -22 10 -26 9 -3 13 -13 10
-25 -3 -11 1 -21 11 -25 9 -3 16 -15 16 -25 0 -11 6 -22 14 -25 8 -3 11 -15 8
-30 -3 -16 0 -24 10 -24 11 0 13 -9 10 -31 -3 -22 0 -34 12 -41 9 -5 16 -22
16 -39 0 -17 6 -32 14 -35 8 -3 12 -12 9 -20 -6 -16 40 -64 63 -64 7 0 14 -4
14 -10 0 -6 42 -10 106 -10 67 0 103 4 99 10 -3 6 1 10 9 10 9 0 16 7 16 15 0
8 7 15 15 15 9 0 12 6 9 15 -4 9 0 15 10 15 10 0 16 9 16 24 0 13 7 27 16 30
9 3 14 13 11 20 -3 8 1 17 10 20 10 4 14 15 11 31 -4 17 -1 25 8 25 9 0 14 11
14 31 0 17 7 38 16 46 10 11 14 26 10 45 -4 21 -2 28 10 28 13 0 15 8 12 35
-3 24 0 35 9 35 9 0 13 16 13 49 0 28 5 53 10 56 6 3 10 26 10 50 0 29 5 45
15 49 11 4 15 22 15 75 0 38 5 73 10 76 16 10 13 685 -2 685 -10 0 -12 19 -10
70 3 57 1 71 -12 76 -10 4 -16 18 -16 40 0 19 -4 34 -10 34 -5 0 -10 22 -10
49 0 28 -4 53 -10 56 -5 3 -10 14 -10 25 0 10 -7 20 -15 24 -10 4 -13 14 -9
35 5 23 2 32 -10 37 -9 3 -16 17 -16 30 0 13 -4 24 -10 24 -5 0 -10 11 -10 25
0 16 -6 25 -16 25 -11 0 -14 5 -10 16 4 10 -3 26 -19 42 -14 13 -25 33 -25 42
0 10 -6 20 -14 23 -9 4 -12 14 -9 26 4 15 1 21 -11 21 -9 0 -16 7 -16 15 0 8
-4 15 -10 15 -5 0 -10 11 -10 25 0 16 -6 25 -15 25 -8 0 -15 5 -15 11 0 13
-25 39 -38 39 -12 0 -26 30 -23 52 1 9 -11 24 -29 34 -16 10 -30 21 -30 24 0
3 -20 27 -45 54 -25 27 -45 53 -45 58 0 4 -6 8 -13 8 -7 0 -21 11 -31 25 -10
14 -25 25 -33 25 -15 0 -43 23 -43 35 0 12 -58 65 -71 65 -6 0 -22 11 -35 25
-13 14 -30 25 -39 25 -8 0 -15 7 -15 16 0 8 -5 12 -10 9 -6 -3 -13 1 -16 9 -3
9 -12 16 -20 16 -18 0 -51 33 -47 47 2 6 -6 8 -22 6 -15 -3 -25 -1 -25 6 0 6
-11 11 -25 11 -16 0 -25 6 -25 15 0 9 -10 15 -26 15 -19 0 -25 4 -21 14 4 10
1 13 -9 9 -8 -3 -14 1 -14 11 0 9 -8 16 -20 16 -11 0 -23 7 -26 15 -4 9 -19
15 -40 15 -19 0 -34 5 -34 10 0 6 -9 10 -20 10 -11 0 -20 5 -20 10 0 6 -11 10
-25 10 -16 0 -25 6 -25 15 0 9 -10 15 -26 15 -14 0 -23 4 -19 10 4 6 -8 10
-28 10 -22 0 -37 6 -41 15 -3 8 -15 15 -26 15 -11 0 -20 7 -20 15 0 11 -11 15
-41 15 -24 0 -38 4 -34 10 4 6 -5 10 -19 10 -15 0 -26 6 -26 13 0 9 -11 12
-35 9 -27 -3 -35 -1 -35 12 0 12 -9 16 -34 16 -21 0 -36 6 -40 15 -3 9 -18 15
-36 15 -16 0 -30 5 -30 10 0 6 -16 10 -35 10 -24 0 -35 5 -35 15 0 10 -11 15
-35 15 -19 0 -35 4 -35 9 0 6 -21 11 -47 13 -27 2 -47 8 -46 13 1 6 -19 9 -48
7 -40 -3 -49 -1 -49 12 0 12 -10 16 -45 16 -33 0 -45 4 -45 15 0 11 -12 15
-45 15 -25 0 -45 5 -45 10 0 6 -27 10 -60 10 -47 0 -60 3 -60 15 0 12 -14 15
-70 15 -40 0 -70 4 -70 10 0 6 -35 10 -86 10 -54 0 -83 4 -79 10 4 6 -32 10
-99 10 -64 0 -106 4 -106 10 0 7 -158 10 -455 10 -297 0 -455 -3 -455 -10z"/>
<path d="M2735 20333 c-21 -61 -66 -326 -57 -335 4 -3 44 -18 90 -32 143 -45
388 -82 727 -111 105 -9 205 -20 224 -24 l35 -7 -127 -82 c-69 -45 -238 -146
-374 -223 -734 -418 -695 -394 -711 -446 -25 -82 -34 -192 -22 -266 6 -39 13
-73 16 -76 6 -6 1798 -240 1802 -236 6 6 56 404 51 409 -2 3 -69 16 -149 30
-148 26 -235 36 -655 81 -132 14 -255 28 -273 31 l-32 6 82 53 c46 29 214 128
373 220 355 206 510 301 657 406 62 45 115 83 117 85 2 2 15 57 27 121 27 134
31 213 12 213 -7 0 -409 52 -893 115 -484 63 -885 115 -891 115 -7 0 -20 -21
-29 -47z"/>
<path d="M31982 19811 c-690 -75 -885 -100 -892 -111 -21 -33 -5 -238 26 -349
l15 -54 62 7 c34 3 121 15 192 26 72 11 174 23 228 26 l97 7 0 -29 c0 -16 9
-71 20 -123 32 -150 30 -160 -37 -218 -32 -27 -122 -97 -200 -156 -142 -107
-235 -190 -266 -238 -16 -24 -16 -38 7 -243 13 -119 26 -219 29 -223 19 -19
188 115 421 335 l169 159 39 -56 c22 -31 52 -74 68 -96 16 -22 30 -44 30 -50
0 -14 166 -82 259 -107 106 -29 313 -31 391 -4 187 63 292 176 351 378 17 58
22 110 26 248 6 206 -7 345 -68 718 -40 238 -43 252 -63 251 -12 -1 -418 -45
-904 -98z m714 -81 c8 0 17 6 20 14 3 9 19 13 47 11 62 -3 82 -15 83 -52 l2
-32 -23 25 c-23 25 -24 25 -34 5 -6 -11 -11 -37 -11 -59 l0 -40 -45 6 c-43 4
-45 4 -45 -22 0 -31 2 -30 -41 -11 l-34 14 33 13 c38 15 39 39 2 49 -23 6 -22
7 8 8 36 1 38 7 17 47 -17 34 -21 71 -4 42 5 -10 17 -18 25 -18z m-123 -299
c22 -9 24 -17 42 -171 37 -335 1 -480 -132 -530 -196 -74 -312 43 -367 366
-18 108 -40 294 -34 299 2 2 71 12 153 23 164 22 300 27 338 13z m-651 -288
c15 -3 30 -14 33 -24 4 -10 18 -28 32 -39 18 -14 27 -32 30 -64 l6 -45 -39 19
c-21 11 -52 20 -70 20 -33 0 -70 30 -46 37 6 3 12 11 12 19 0 8 7 14 15 14 8
0 15 4 15 8 0 15 -24 32 -47 32 -17 0 -23 6 -23 21 0 18 4 20 28 15 15 -4 39
-10 54 -13z"/>
<path d="M31992 15612 c-119 -122 -190 -350 -163 -527 15 -101 50 -173 112
-229 63 -56 120 -76 224 -76 101 0 164 28 246 110 46 45 69 83 128 202 74 152
98 182 159 194 42 9 71 -11 94 -63 15 -33 18 -56 14 -87 -13 -81 -92 -220
-179 -313 l-30 -32 42 -63 c67 -101 86 -121 109 -114 11 4 53 41 94 84 120
127 185 276 195 453 5 81 2 107 -16 165 -27 88 -77 155 -143 194 -72 41 -119
53 -209 52 -137 -1 -210 -61 -313 -261 -86 -167 -113 -203 -177 -235 l-53 -26
-23 22 c-73 68 -45 206 74 361 l44 57 -22 38 c-35 57 -120 142 -141 142 -11 0
-40 -22 -66 -48z"/>
<path d="M3485 15240 c-88 -21 -313 -81 -500 -133 -187 -53 -362 -101 -388
-108 -27 -6 -46 -16 -44 -23 2 -6 17 -62 33 -124 l29 -113 49 7 c27 3 86 19
131 34 45 15 100 31 121 34 l39 7 22 -103 c25 -116 89 -257 147 -324 108 -126
272 -162 445 -98 178 67 245 172 244 379 -1 119 -16 191 -85 428 -39 133 -56
177 -68 176 -8 0 -87 -18 -175 -39z m48 -337 c50 -177 39 -306 -26 -340 -89
-46 -144 -36 -210 37 -46 52 -93 157 -103 234 l-6 41 158 42 c88 23 162 42
165 42 4 1 14 -25 22 -56z"/>
<path d="M31055 12658 c-39 -101 -178 -413 -263 -591 l-71 -147 32 -17 c57
-29 1021 -483 1027 -483 3 0 23 42 44 93 22 50 89 198 149 327 61 129 125 271
143 315 l32 80 -41 28 c-67 45 -114 67 -145 67 -27 0 -31 -6 -73 -107 -62
-151 -172 -372 -206 -412 l-29 -34 -55 18 c-78 26 -109 50 -109 85 0 44 39
139 118 290 38 74 73 144 76 156 5 16 -5 28 -51 61 -67 46 -116 73 -136 73 -8
0 -19 -10 -25 -22 -6 -13 -45 -97 -87 -188 -41 -90 -90 -186 -107 -213 -31
-48 -32 -49 -72 -43 -23 4 -64 18 -93 31 l-51 23 9 41 c19 86 107 280 211 468
18 33 21 46 12 60 -13 21 -172 113 -195 113 -11 0 -25 -24 -44 -72z"/>
<path d="M4530 12191 c-80 -38 -306 -150 -502 -250 -304 -155 -358 -186 -358
-204 0 -25 50 -135 81 -178 27 -38 36 -36 229 57 85 41 171 77 190 80 l36 6
66 -144 c69 -150 106 -244 98 -252 -3 -2 -93 -48 -200 -101 -107 -53 -196 -98
-198 -99 -1 -2 12 -34 29 -72 17 -38 40 -90 51 -116 12 -27 27 -48 34 -48 6 0
244 115 529 255 l517 255 -6 27 c-10 39 -69 164 -92 191 l-19 23 -200 -97
c-109 -53 -200 -93 -202 -87 -2 5 -33 56 -69 113 -72 117 -119 209 -129 257
-8 38 1 43 148 99 51 19 127 51 170 71 63 29 77 40 77 59 0 51 -93 225 -120
223 -8 0 -80 -31 -160 -68z"/>
<path d="M29422 9877 c-23 -29 -53 -79 -68 -111 -26 -57 -26 -58 -8 -76 15
-14 636 -468 886 -647 36 -26 53 -33 56 -24 2 7 26 41 52 75 48 62 80 117 80
135 0 5 -51 44 -112 87 -113 78 -276 197 -638 468 -107 80 -198 146 -201 146
-4 0 -25 -24 -47 -53z"/>
<path d="M6245 9280 c-247 -33 -466 -206 -542 -429 -18 -52 -23 -89 -23 -175
0 -184 38 -284 163 -427 84 -96 173 -159 292 -206 63 -25 82 -27 195 -27 112
0 132 2 194 27 82 32 183 98 251 164 52 50 112 153 146 250 46 132 32 298 -35
440 -38 80 -115 198 -123 189 -3 -3 -36 23 -72 57 -79 74 -158 114 -261 133
-83 15 -98 15 -185 4z m223 -314 c120 -60 201 -195 202 -332 0 -92 -37 -171
-114 -241 -154 -141 -315 -147 -456 -17 -121 113 -165 253 -124 395 13 44 28
66 84 121 87 84 142 107 258 107 75 1 89 -2 150 -33z"/>
<path d="M27750 7903 c-49 -37 -130 -115 -141 -135 -7 -14 18 -48 136 -178
l146 -161 -70 -77 c-97 -108 -201 -206 -237 -225 -38 -19 -29 -27 -162 148
-49 66 -104 133 -121 150 l-32 29 -34 -18 c-41 -23 -165 -141 -165 -158 0 -18
199 -248 404 -468 95 -102 214 -231 266 -287 51 -57 96 -103 100 -103 26 0
180 141 180 165 0 19 -49 81 -148 189 -49 55 -100 116 -111 137 l-21 37 92 83
c92 81 229 189 241 189 3 0 72 -74 153 -165 81 -91 149 -165 150 -165 5 0 135
102 173 137 l36 32 -26 28 c-14 15 -189 210 -389 433 -200 223 -368 406 -374
408 -6 1 -27 -10 -46 -25z"/>
<path d="M8715 7068 c-14 -18 -41 -61 -60 -95 l-34 -62 28 -29 c16 -16 62 -48
103 -72 86 -51 117 -74 135 -100 13 -19 -7 -50 -256 -390 -149 -204 -271 -375
-271 -379 0 -15 94 -94 154 -130 56 -34 58 -34 75 -15 10 10 80 107 155 214
145 207 318 444 364 497 l27 32 100 -81 c55 -44 117 -89 137 -99 l37 -19 35
35 c20 19 54 60 77 90 l41 55 -23 20 c-65 55 -270 208 -404 300 -82 57 -199
139 -258 182 -59 43 -114 78 -122 78 -8 0 -26 -15 -40 -32z"/>
<path d="M25015 5812 c-112 -29 -208 -75 -393 -186 l-173 -103 82 -159 c77
-148 442 -797 471 -838 13 -17 19 -15 121 40 66 37 107 65 107 75 0 19 -30 78
-92 179 -72 117 -74 110 36 168 205 108 310 226 337 378 27 154 -66 340 -212
422 -76 43 -176 52 -284 24z m146 -253 c11 -5 33 -28 49 -51 72 -99 15 -211
-160 -314 -59 -35 -77 -41 -86 -31 -16 17 -154 271 -154 284 0 14 131 82 200
104 63 21 122 24 151 8z"/>
<path d="M11610 5245 c-315 -87 -533 -434 -469 -747 6 -29 29 -91 51 -138 61
-127 152 -214 292 -280 128 -61 181 -73 316 -74 155 -1 247 26 357 108 92 67
166 173 220 315 22 57 26 83 26 186 1 190 -44 305 -168 431 -71 71 -229 178
-252 170 -6 -3 -38 5 -70 16 -76 28 -225 34 -303 13z m305 -299 c126 -62 215
-188 215 -305 0 -126 -92 -290 -194 -344 -34 -18 -57 -22 -136 -22 -88 0 -101
3 -163 33 -236 117 -295 373 -127 556 25 27 72 61 114 82 67 33 76 35 151 32
64 -2 92 -9 140 -32z"/>
<path d="M21785 4507 c-55 -17 -101 -31 -102 -32 -8 -5 -49 -317 -88 -668 -24
-222 -51 -447 -59 -502 -8 -55 -14 -100 -13 -101 1 -1 29 6 62 17 33 10 79 23
101 29 71 18 91 40 104 123 29 183 26 176 84 202 63 28 363 125 386 125 22 0
66 -48 134 -146 l56 -81 125 36 c69 20 125 40 125 45 0 4 -49 70 -108 145 -60
75 -162 204 -227 286 -194 245 -459 556 -473 554 -4 -1 -52 -15 -107 -32z
m128 -366 c14 -21 64 -84 111 -140 l86 -100 -88 -26 c-48 -15 -106 -32 -129
-40 l-43 -14 0 62 c0 34 7 109 15 167 8 58 15 111 15 118 0 19 5 15 33 -27z"/>
<path d="M15120 4199 c-270 -28 -437 -169 -515 -434 -87 -294 46 -579 341
-730 69 -36 74 -37 210 -42 166 -7 254 6 339 47 105 51 112 61 134 180 33 171
71 369 73 381 4 16 -274 66 -413 75 l-105 7 -17 -102 c-10 -56 -15 -107 -12
-112 4 -5 32 -9 63 -10 78 -1 160 -13 173 -26 8 -8 7 -33 -1 -86 -14 -83 -13
-83 -110 -108 -58 -15 -170 -4 -232 23 -126 54 -205 226 -179 388 24 148 109
253 234 292 120 36 230 7 361 -96 33 -25 62 -46 65 -46 12 0 181 166 181 177
0 22 -122 112 -215 158 -90 45 -199 76 -265 73 -19 0 -69 -4 -110 -9z"/>
<path d="M18440 4024 c-19 -2 -114 -11 -210 -21 -96 -9 -176 -17 -178 -18 -4
-3 59 -1159 64 -1165 8 -8 166 -6 218 3 l49 9 -7 71 c-4 40 -9 122 -13 183
l-6 111 93 13 c63 9 98 10 109 3 9 -5 55 -67 103 -138 48 -70 106 -148 130
-172 l43 -44 145 7 c80 3 147 8 149 10 11 9 -93 152 -211 290 -43 51 -78 96
-78 100 1 9 81 64 113 76 22 9 71 111 92 193 8 32 15 94 15 137 0 176 -89 286
-268 333 -61 15 -279 27 -352 19z m250 -265 c51 -17 87 -55 99 -106 22 -86
-34 -153 -150 -181 -55 -14 -279 -35 -286 -28 -9 8 -16 271 -9 299 6 24 11 26
74 30 98 6 232 -1 272 -14z"/>
</g>
</svg>
